<mxfile host="www.draw.io" modified="2020-02-17T22:23:36.326Z" agent="Mozilla/5.0 (Windows NT 10.0; Win64; x64) AppleWebKit/537.36 (KHTML, like Gecko) Chrome/78.0.3904.70 Safari/537.36" etag="w_AdXYU0Tae1HWJHCWPf" version="12.7.1" type="github">
  <diagram id="ZTwRjpQaeGu7MBUoPaFl" name="Page-1">
    <mxGraphModel dx="868" dy="482" grid="1" gridSize="10" guides="1" tooltips="1" connect="1" arrows="1" fold="1" page="1" pageScale="1" pageWidth="827" pageHeight="1169" math="0" shadow="0">
      <root>
        <mxCell id="0" />
        <mxCell id="1" parent="0" />
        <mxCell id="pMiSIhhBQEkNktz_2Eiv-23" style="edgeStyle=orthogonalEdgeStyle;rounded=0;orthogonalLoop=1;jettySize=auto;html=1;entryX=0;entryY=0.5;entryDx=0;entryDy=0;fontSize=11;" parent="1" source="pMiSIhhBQEkNktz_2Eiv-1" target="pMiSIhhBQEkNktz_2Eiv-3" edge="1">
          <mxGeometry relative="1" as="geometry" />
        </mxCell>
        <mxCell id="pMiSIhhBQEkNktz_2Eiv-1" value="Recebimento" style="ellipse;whiteSpace=wrap;html=1;aspect=fixed;fillColor=#aa00ff;strokeColor=#7700CC;fontColor=#ffffff;fontStyle=1;fontSize=11;" parent="1" vertex="1">
          <mxGeometry x="160" y="90" width="80" height="80" as="geometry" />
        </mxCell>
        <mxCell id="pMiSIhhBQEkNktz_2Eiv-24" style="edgeStyle=orthogonalEdgeStyle;rounded=0;orthogonalLoop=1;jettySize=auto;html=1;entryX=0;entryY=0.5;entryDx=0;entryDy=0;fontSize=11;" parent="1" source="pMiSIhhBQEkNktz_2Eiv-3" target="pMiSIhhBQEkNktz_2Eiv-4" edge="1">
          <mxGeometry relative="1" as="geometry" />
        </mxCell>
        <mxCell id="pMiSIhhBQEkNktz_2Eiv-3" value="Levantamento&lt;br style=&quot;font-size: 11px;&quot;&gt;de Fluxos" style="ellipse;whiteSpace=wrap;html=1;aspect=fixed;fillColor=#aa00ff;strokeColor=#7700CC;fontColor=#ffffff;fontStyle=1;fontSize=11;" parent="1" vertex="1">
          <mxGeometry x="300" y="90" width="80" height="80" as="geometry" />
        </mxCell>
        <mxCell id="pMiSIhhBQEkNktz_2Eiv-4" value="Design&lt;br style=&quot;font-size: 11px;&quot;&gt;Thinking" style="ellipse;whiteSpace=wrap;html=1;aspect=fixed;fillColor=#aa00ff;strokeColor=#7700CC;fontColor=#ffffff;fontStyle=1;fontSize=11;" parent="1" vertex="1">
          <mxGeometry x="440" y="90" width="80" height="80" as="geometry" />
        </mxCell>
        <mxCell id="pMiSIhhBQEkNktz_2Eiv-25" style="edgeStyle=orthogonalEdgeStyle;rounded=0;orthogonalLoop=1;jettySize=auto;html=1;entryX=0;entryY=0.5;entryDx=0;entryDy=0;fontSize=11;" parent="1" source="pMiSIhhBQEkNktz_2Eiv-8" target="pMiSIhhBQEkNktz_2Eiv-22" edge="1">
          <mxGeometry relative="1" as="geometry" />
        </mxCell>
        <mxCell id="pMiSIhhBQEkNktz_2Eiv-8" value="Especificação" style="ellipse;whiteSpace=wrap;html=1;aspect=fixed;fillColor=#1ba1e2;strokeColor=#006EAF;fontStyle=1;fontSize=11;fontColor=#ffffff;" parent="1" vertex="1">
          <mxGeometry x="165" y="220" width="80" height="80" as="geometry" />
        </mxCell>
        <mxCell id="pMiSIhhBQEkNktz_2Eiv-15" value="Desenvolv." style="ellipse;whiteSpace=wrap;html=1;aspect=fixed;fillColor=#e51400;strokeColor=#B20000;fontStyle=1;fontSize=11;fontColor=#ffffff;" parent="1" vertex="1">
          <mxGeometry x="440" y="220" width="80" height="80" as="geometry" />
        </mxCell>
        <mxCell id="pMiSIhhBQEkNktz_2Eiv-27" style="edgeStyle=orthogonalEdgeStyle;rounded=0;orthogonalLoop=1;jettySize=auto;html=1;fontSize=11;" parent="1" source="pMiSIhhBQEkNktz_2Eiv-18" target="pMiSIhhBQEkNktz_2Eiv-20" edge="1">
          <mxGeometry relative="1" as="geometry" />
        </mxCell>
        <mxCell id="pMiSIhhBQEkNktz_2Eiv-18" value="Testes de TI" style="ellipse;whiteSpace=wrap;html=1;aspect=fixed;fillColor=#60a917;strokeColor=#2D7600;fontStyle=1;fontSize=11;fontColor=#ffffff;" parent="1" vertex="1">
          <mxGeometry x="165" y="350" width="80" height="80" as="geometry" />
        </mxCell>
        <mxCell id="pMiSIhhBQEkNktz_2Eiv-28" style="edgeStyle=orthogonalEdgeStyle;rounded=0;orthogonalLoop=1;jettySize=auto;html=1;fontSize=11;" parent="1" source="pMiSIhhBQEkNktz_2Eiv-20" target="pMiSIhhBQEkNktz_2Eiv-21" edge="1">
          <mxGeometry relative="1" as="geometry" />
        </mxCell>
        <mxCell id="pMiSIhhBQEkNktz_2Eiv-20" value="Adaptação das Sócias" style="ellipse;whiteSpace=wrap;html=1;aspect=fixed;fillColor=#60a917;strokeColor=#2D7600;fontStyle=1;fontSize=11;fontColor=#ffffff;" parent="1" vertex="1">
          <mxGeometry x="300" y="350" width="80" height="80" as="geometry" />
        </mxCell>
        <mxCell id="pMiSIhhBQEkNktz_2Eiv-21" value="Homologação" style="ellipse;whiteSpace=wrap;html=1;aspect=fixed;fillColor=#60a917;strokeColor=#2D7600;fontStyle=1;fontSize=11;fontColor=#ffffff;" parent="1" vertex="1">
          <mxGeometry x="440" y="350" width="80" height="80" as="geometry" />
        </mxCell>
        <mxCell id="pMiSIhhBQEkNktz_2Eiv-26" style="edgeStyle=orthogonalEdgeStyle;rounded=0;orthogonalLoop=1;jettySize=auto;html=1;fontSize=11;" parent="1" source="pMiSIhhBQEkNktz_2Eiv-22" target="pMiSIhhBQEkNktz_2Eiv-15" edge="1">
          <mxGeometry relative="1" as="geometry" />
        </mxCell>
        <mxCell id="pMiSIhhBQEkNktz_2Eiv-22" value="Contratação&lt;br style=&quot;font-size: 11px;&quot;&gt;Fornecedores" style="ellipse;whiteSpace=wrap;html=1;aspect=fixed;fillColor=#1ba1e2;strokeColor=#006EAF;fontStyle=1;fontSize=11;fontColor=#ffffff;" parent="1" vertex="1">
          <mxGeometry x="300" y="220" width="80" height="80" as="geometry" />
        </mxCell>
        <mxCell id="pMiSIhhBQEkNktz_2Eiv-29" value="Entendimento&lt;br style=&quot;font-size: 14px;&quot;&gt;Out/19" style="rounded=1;whiteSpace=wrap;html=1;fillColor=#aa00ff;strokeColor=#7700CC;fontColor=#ffffff;fontStyle=1;fontSize=14;" parent="1" vertex="1">
          <mxGeometry x="20" y="100" width="120" height="60" as="geometry" />
        </mxCell>
        <mxCell id="pMiSIhhBQEkNktz_2Eiv-30" value="Construção&lt;br style=&quot;font-size: 14px;&quot;&gt;Dez/19" style="rounded=1;whiteSpace=wrap;html=1;fillColor=#1ba1e2;strokeColor=#006EAF;fontColor=#ffffff;fontStyle=1;fontSize=14;" parent="1" vertex="1">
          <mxGeometry x="20" y="230" width="120" height="60" as="geometry" />
        </mxCell>
        <mxCell id="pMiSIhhBQEkNktz_2Eiv-31" value="Validação&lt;br style=&quot;font-size: 14px&quot;&gt;14/Abril" style="rounded=1;whiteSpace=wrap;html=1;fillColor=#60a917;strokeColor=#2D7600;fontColor=#ffffff;fontStyle=1;fontSize=14;" parent="1" vertex="1">
          <mxGeometry x="20" y="360" width="120" height="60" as="geometry" />
        </mxCell>
        <mxCell id="pMiSIhhBQEkNktz_2Eiv-32" value="Prazo:&lt;br style=&quot;font-size: 14px;&quot;&gt;Novembro/19" style="rounded=1;whiteSpace=wrap;html=1;fillColor=#aa00ff;strokeColor=#7700CC;fontColor=#ffffff;fontStyle=1;fontSize=14;" parent="1" vertex="1">
          <mxGeometry x="540" y="100" width="120" height="60" as="geometry" />
        </mxCell>
        <mxCell id="pMiSIhhBQEkNktz_2Eiv-33" value="Prazo:&lt;br style=&quot;font-size: 14px;&quot;&gt;Abril/20" style="rounded=1;whiteSpace=wrap;html=1;fillColor=#1ba1e2;strokeColor=#006EAF;fontColor=#ffffff;fontStyle=1;fontSize=14;" parent="1" vertex="1">
          <mxGeometry x="540" y="230" width="120" height="60" as="geometry" />
        </mxCell>
        <mxCell id="pMiSIhhBQEkNktz_2Eiv-34" value="Go-live:&lt;br style=&quot;font-size: 14px;&quot;&gt;Junho/19" style="rounded=1;whiteSpace=wrap;html=1;fillColor=#60a917;strokeColor=#2D7600;fontColor=#ffffff;fontStyle=1;fontSize=14;" parent="1" vertex="1">
          <mxGeometry x="540" y="360" width="120" height="60" as="geometry" />
        </mxCell>
        <mxCell id="lp2ajLt_Ak6MV04k99ys-2" style="edgeStyle=orthogonalEdgeStyle;rounded=0;orthogonalLoop=1;jettySize=auto;html=1;entryX=0.5;entryY=0;entryDx=0;entryDy=0;fontSize=11;" edge="1" parent="1" source="lp2ajLt_Ak6MV04k99ys-1" target="pMiSIhhBQEkNktz_2Eiv-15">
          <mxGeometry relative="1" as="geometry" />
        </mxCell>
        <mxCell id="lp2ajLt_Ak6MV04k99ys-1" value="Estamos&lt;br style=&quot;font-size: 12px;&quot;&gt;Aqui!" style="ellipse;shape=cloud;whiteSpace=wrap;html=1;fontSize=12;fillColor=#e51400;strokeColor=#B20000;fontColor=#ffffff;fontStyle=1" vertex="1" parent="1">
          <mxGeometry x="550" y="165" width="100" height="60" as="geometry" />
        </mxCell>
      </root>
    </mxGraphModel>
  </diagram>
</mxfile>
